<svg width="18" height="18" viewBox="0 0 18 18" fill="none" xmlns="http://www.w3.org/2000/svg">
<path d="M9 0C13.9706 0 18 4.02944 18 9C18 13.9706 13.9706 18 9 18C4.02944 18 0 13.9706 0 9C0 4.02944 4.02944 0 9 0ZM9 1.59961C4.91309 1.59961 1.59961 4.91309 1.59961 9C1.59961 13.0869 4.91309 16.4004 9 16.4004C13.0869 16.4004 16.4004 13.0869 16.4004 9C16.4004 4.91309 13.0869 1.59961 9 1.59961ZM11.8057 5.10352C12.0248 4.71997 12.5129 4.58663 12.8965 4.80566C13.28 5.02483 13.4134 5.5129 13.1943 5.89648L9.19434 12.8965C9.07067 13.1129 8.85345 13.2598 8.60645 13.293C8.35933 13.326 8.11087 13.2417 7.93457 13.0654L4.93457 10.0654L4.87988 10.0049C4.62343 9.69068 4.64165 9.22753 4.93457 8.93457C5.22753 8.64161 5.69066 8.62342 6.00488 8.87988L6.06543 8.93457L8.3252 11.1943L11.8057 5.10352Z" fill="#8E9DCB"/>
</svg>
