<svg width="14" height="17" viewBox="0 0 14 17" fill="none" xmlns="http://www.w3.org/2000/svg">
<path fill-rule="evenodd" clip-rule="evenodd" d="M6.66341 0.614982C6.85708 0.461673 7.14287 0.461673 7.33655 0.614981L13.2194 5.27168C13.4362 5.44335 13.4613 5.74486 13.2755 5.94514C13.0896 6.14541 12.7631 6.16861 12.5462 5.99694L6.99998 1.60666L1.45373 5.99696C1.23686 6.16862 0.910373 6.14543 0.72449 5.94515C0.538608 5.74488 0.563722 5.44336 0.780586 5.2717L6.66341 0.614982ZM13.1443 11.0529C13.3314 11.2522 13.3081 11.5538 13.0922 11.7266L7.27404 16.3833C7.07966 16.5389 6.79101 16.5389 6.59662 16.3833L0.778446 11.7266C0.562601 11.5539 0.539271 11.2522 0.726335 11.0529C0.9134 10.8536 1.24002 10.832 1.45587 11.0048L6.93533 15.3904L12.4148 11.0047C12.6306 10.832 12.9573 10.8535 13.1443 11.0529Z" fill="#600107"/>
</svg>
