<svg width="18" height="20" viewBox="0 0 18 20" fill="none" xmlns="http://www.w3.org/2000/svg">
<path fill-rule="evenodd" clip-rule="evenodd" d="M9.00016 0C13.6755 0 17.5716 3.79066 17.5716 8.33956C17.5716 9.82418 17.0471 11.2883 16.3141 12.6149C15.5782 13.9466 14.6041 15.1901 13.6363 16.2486C12.6667 17.3093 11.687 18.2023 10.9237 18.8332C10.5424 19.1484 10.2087 19.4034 9.95138 19.5841C9.82433 19.6733 9.70528 19.7517 9.60252 19.8117C9.55251 19.8409 9.49157 19.8745 9.42676 19.9037C9.3945 19.9181 9.34809 19.9375 9.29272 19.9547C9.24916 19.9682 9.1403 20 9.00016 20C8.85877 20 8.74905 19.9677 8.70535 19.954C8.64969 19.9365 8.60311 19.9169 8.57079 19.9023C8.50586 19.8728 8.44486 19.839 8.39487 19.8095C8.29215 19.7489 8.17315 19.6698 8.04617 19.5799C7.78905 19.3981 7.45548 19.1412 7.07441 18.8241C6.31146 18.1893 5.3322 17.2917 4.36306 16.2282C3.39584 15.1668 2.42222 13.9222 1.68658 12.5936C0.954098 11.2707 0.428711 9.81254 0.428711 8.33956C0.428711 3.79066 4.32477 0 9.00016 0ZM9.00016 10.8302C7.58635 10.8302 6.44024 9.71511 6.44024 8.33956C6.44024 6.96401 7.58635 5.8489 9.00016 5.8489C10.414 5.8489 11.5601 6.96401 11.5601 8.33956C11.5601 9.71511 10.414 10.8302 9.00016 10.8302Z" fill="white"/>
</svg>
