<svg width="18" height="18" viewBox="0 0 18 18" fill="none" xmlns="http://www.w3.org/2000/svg">
<path fill-rule="evenodd" clip-rule="evenodd" d="M9.00001 -0.000976562C12.3705 -0.000976562 15.1793 2.80775 15.1793 6.1783C15.1793 7.27834 14.8011 8.36321 14.2727 9.34614C13.7422 10.3329 13.04 11.2542 12.3423 12.0386C11.6433 12.8245 10.937 13.4862 10.3867 13.9537C10.1118 14.1872 9.87125 14.3762 9.68576 14.51C9.59416 14.5761 9.50834 14.6342 9.43426 14.6787C9.39821 14.7003 9.35427 14.7252 9.30755 14.7468C9.28429 14.7575 9.25084 14.7719 9.21092 14.7846C9.17952 14.7947 9.10104 14.8182 9.00001 14.8182C8.89808 14.8182 8.81898 14.7943 8.78748 14.7841C8.74735 14.7711 8.71377 14.7566 8.69047 14.7458C8.64366 14.724 8.59969 14.6989 8.56365 14.677C8.48959 14.6322 8.40381 14.5735 8.31227 14.5069C8.1269 14.3722 7.88642 14.1819 7.61171 13.9469C7.06169 13.4766 6.35573 12.8115 5.65706 12.0234C4.95978 11.237 4.25788 10.3148 3.72755 9.33038C3.19949 8.35015 2.82074 7.26971 2.82074 6.1783C2.82074 2.80775 5.62946 -0.000976562 9.00001 -0.000976562ZM9.00001 8.02376C7.98077 8.02376 7.15453 7.19752 7.15453 6.1783C7.15453 5.15907 7.98077 4.33282 9.00001 4.33282C10.0192 4.33282 10.8455 5.15907 10.8455 6.1783C10.8455 7.19752 10.0192 8.02376 9.00001 8.02376ZM12.9847 13.0582C13.2219 12.7915 13.4592 12.5121 13.6922 12.2219H14.2344H15.419C15.6762 12.2219 15.9086 12.3751 16.01 12.6115L17.9356 17.1048C18.0207 17.3035 18.0004 17.5316 17.8814 17.712C17.7625 17.8923 17.5608 18.0009 17.3448 18.0009H0.655249C0.439158 18.0009 0.237522 17.8923 0.118566 17.712C-0.000390798 17.5316 -0.0207522 17.3035 0.0643709 17.1048L1.99007 12.6115C2.09138 12.3751 2.32379 12.2219 2.58096 12.2219H3.76553H4.32353C4.55119 12.5054 4.78294 12.7786 5.01449 13.0397C5.86503 13.9991 6.72459 14.8089 7.39376 15.3811C7.72806 15.667 8.0195 15.8976 8.24268 16.0598C8.35313 16.1402 8.45454 16.2093 8.54038 16.2613C8.5823 16.2867 8.6312 16.3145 8.6819 16.3382C8.70715 16.35 8.74242 16.3652 8.78396 16.3785C8.81688 16.3892 8.89714 16.4134 8.99993 16.4134C9.10185 16.4134 9.18149 16.3896 9.2143 16.3792C9.25565 16.3659 9.29078 16.3509 9.31598 16.3392C9.3666 16.3158 9.41545 16.2883 9.45739 16.2631C9.54325 16.2115 9.64469 16.1429 9.7552 16.0632C9.97851 15.9021 10.2701 15.6732 10.6045 15.3891C11.2739 14.8204 12.1338 14.0148 12.9847 13.0582Z" fill="#600107"/>
</svg>
