<svg width="18" height="15" viewBox="0 0 18 15" fill="none" xmlns="http://www.w3.org/2000/svg">
<path fill-rule="evenodd" clip-rule="evenodd" d="M0 2.03575C0 0.970625 0.863451 0.107178 1.92857 0.107178H16.0714C17.1365 0.107178 18 0.970625 18 2.03575V2.4754L9.49294 8.14778C9.37296 8.22492 9.1988 8.27999 8.99999 8.27999C8.80119 8.27999 8.62703 8.22492 8.50704 8.14778L0 2.47541V2.03575ZM0 4.40706V12.9643C0 14.0294 0.863451 14.8929 1.92857 14.8929H16.0714C17.1365 14.8929 18 14.0294 18 12.9643V4.40704L10.3801 9.48789L10.3727 9.49283C9.96813 9.75615 9.48231 9.88713 8.99999 9.88713C8.51768 9.88713 8.03188 9.75611 7.62733 9.49279L7.61988 9.48793L0 4.40706Z" fill="#600107"/>
</svg>
