<svg width="18" height="18" viewBox="0 0 18 18" fill="none" xmlns="http://www.w3.org/2000/svg">
<path fill-rule="evenodd" clip-rule="evenodd" d="M10.3521 1.10638C10.3521 0.573815 9.92034 0.14209 9.38778 0.14209C8.16366 0.14209 6.95154 0.383195 5.82062 0.851641C4.68969 1.32008 3.66211 2.00669 2.79653 2.87227C1.93096 3.73784 1.24434 4.76544 0.775897 5.89636C0.307451 7.02729 0.0663452 8.23941 0.0663452 9.46351C0.0663452 9.99608 0.498071 10.4278 1.03063 10.4278C1.56319 10.4278 1.99492 9.99608 1.99492 9.46351C1.99492 8.49267 2.18613 7.53134 2.55767 6.63439C2.92919 5.73745 3.47374 4.92247 4.16023 4.23598C4.84673 3.54948 5.6617 3.00493 6.55866 2.63341C7.4556 2.26188 8.41692 2.07066 9.38778 2.07066C9.92034 2.07066 10.3521 1.63894 10.3521 1.10638ZM8.97135 17.3053C8.30484 17.7344 7.51151 17.9225 6.72325 17.8383C5.93501 17.7541 5.19932 17.4027 4.63849 16.8424L4.14992 16.3538C3.93323 16.1347 3.81168 15.839 3.81168 15.531C3.81168 15.2228 3.93323 14.9272 4.14992 14.7081L6.20706 12.6638C6.42393 12.4479 6.71748 12.3267 7.02349 12.3267C7.32952 12.3267 7.62307 12.4479 7.83992 12.6638C8.05897 12.8805 8.35466 13.0021 8.66278 13.0021C8.97091 13.0021 9.2666 12.8805 9.48564 12.6638L12.7642 9.38524C12.981 9.16619 13.1025 8.8705 13.1025 8.56238C13.1025 8.25426 12.981 7.95857 12.7642 7.73952C12.5483 7.52266 12.4271 7.22911 12.4271 6.9231C12.4271 6.61708 12.5483 6.32353 12.7642 6.10667L14.7442 4.04952C14.9633 3.83282 15.259 3.71128 15.567 3.71128C15.8752 3.71128 16.1709 3.83282 16.3899 4.04952L16.8785 4.5381C17.4488 5.091 17.8123 5.82278 17.9082 6.61131C18.0041 7.39984 17.8268 8.19743 17.4056 8.87095C15.1637 12.1994 12.2998 15.0634 8.97135 17.3053ZM9.79144 3.861C10.324 3.861 10.7557 4.29273 10.7557 4.82529C10.7557 5.35784 10.324 5.78957 9.79144 5.78957C8.68322 5.78957 7.62039 6.22981 6.83674 7.01344C6.05311 7.79709 5.61287 8.85992 5.61287 9.96814C5.61287 10.5007 5.18114 10.9324 4.64859 10.9324C4.11603 10.9324 3.6843 10.5007 3.6843 9.96814C3.6843 8.34843 4.32772 6.79505 5.47304 5.64974C6.61835 4.50442 8.17173 3.861 9.79144 3.861Z" fill="#600107"/>
</svg>
