<svg width="20" height="20" viewBox="0 0 20 20" fill="none" xmlns="http://www.w3.org/2000/svg">
<path d="M13.2026 11.3269C13.2047 11.3238 13.207 11.3208 13.2091 11.3177C14.1845 9.87667 14.5918 8.11999 14.3515 6.39164C14.1111 4.6633 13.2403 3.08777 11.9096 1.97359C10.5789 0.859405 8.88414 0.28681 7.15718 0.367928C5.43021 0.449046 3.79544 1.17804 2.57297 2.41215C1.3505 3.64626 0.628386 5.2966 0.548032 7.04001C0.467679 8.78342 1.03487 10.4943 2.13855 11.8377C3.24222 13.1811 4.80288 14.0602 6.51493 14.3028C8.22697 14.5455 9.96708 14.1342 11.3945 13.1496C11.3976 13.1475 11.4005 13.1451 11.4036 13.143L17.2879 19.0833C17.5264 19.3242 17.85 19.4595 18.1874 19.4594C18.5247 19.4594 18.8483 19.3241 19.0869 19.0833C19.3254 18.8425 19.4594 18.5158 19.4594 18.1752C19.4594 17.8347 19.3254 17.508 19.0869 17.2672L13.2026 11.3269ZM7.48808 13.1538C6.10675 13.1548 4.77157 12.652 3.72839 11.738C2.6852 10.8239 2.00425 9.56015 1.81091 8.1794C1.61758 6.79865 1.92488 5.39388 2.67623 4.22373C3.42759 3.05359 4.5724 2.19688 5.89988 1.81134C7.22736 1.4258 8.64813 1.5374 9.90056 2.12558C11.153 2.71376 12.1528 3.73892 12.7158 5.0123C13.2788 6.28568 13.3672 7.72154 12.9646 9.05548C12.5621 10.3894 11.6957 11.5316 10.525 12.2718C9.61457 12.8473 8.56226 13.1529 7.48808 13.1538Z" fill="#600107"/>
</svg>
