<svg width="38" height="38" viewBox="0 0 38 38" fill="none" xmlns="http://www.w3.org/2000/svg">
<path fill-rule="evenodd" clip-rule="evenodd" d="M21.0361 2.06941C21.0361 0.945111 20.1247 0.0336914 19.0004 0.0336914C17.8761 0.0336914 16.9647 0.945111 16.9647 2.06941V5.63687C14.4805 6.05677 12.1687 7.23852 10.3636 9.04354C8.073 11.3342 6.78613 14.4409 6.78613 17.6803C6.78613 18.4299 7.39375 19.0375 8.14328 19.0375H29.8576C30.2175 19.0375 30.5627 18.8945 30.8173 18.64C31.0717 18.3855 31.2147 18.0403 31.2147 17.6803C31.2147 14.4409 29.9279 11.3342 27.6373 9.04354C25.8322 7.23852 23.5203 6.05677 21.0361 5.63687V2.06941ZM13.5718 23.0377C14.6961 23.0377 15.6076 23.9491 15.6076 25.0734V27.7878C15.6076 28.912 14.6961 29.8235 13.5718 29.8235C12.4476 29.8235 11.5361 28.912 11.5361 27.7878V25.0734C11.5361 23.9491 12.4476 23.0377 13.5718 23.0377ZM11.5361 33.2163C11.5361 32.0921 10.6247 31.1806 9.50042 31.1806C8.37613 31.1806 7.4647 32.0921 7.4647 33.2163V35.9306C7.4647 37.0549 8.37613 37.9663 9.50042 37.9663C10.6247 37.9663 11.5361 37.0549 11.5361 35.9306V33.2163ZM19.0004 31.1806C20.1247 31.1806 21.0361 32.0921 21.0361 33.2163V35.9306C21.0361 37.0549 20.1247 37.9663 19.0004 37.9663C17.8761 37.9663 16.9647 37.0549 16.9647 35.9306V33.2163C16.9647 32.0921 17.8761 31.1806 19.0004 31.1806ZM30.5361 33.2163C30.5361 32.0921 29.6247 31.1806 28.5004 31.1806C27.3762 31.1806 26.4647 32.0921 26.4647 33.2163V35.9306C26.4647 37.0549 27.3762 37.9663 28.5004 37.9663C29.6247 37.9663 30.5361 37.0549 30.5361 35.9306V33.2163ZM24.429 23.0377C25.5533 23.0377 26.4647 23.9491 26.4647 25.0734V27.7878C26.4647 28.912 25.5533 29.8235 24.429 29.8235C23.3047 29.8235 22.3933 28.912 22.3933 27.7878V25.0734C22.3933 23.9491 23.3047 23.0377 24.429 23.0377Z" fill="#8E9DCB"/>
</svg>
