<svg width="38" height="38" viewBox="0 0 38 38" fill="none" xmlns="http://www.w3.org/2000/svg">
<g clip-path="url(#clip0_19_833)">
<path fill-rule="evenodd" clip-rule="evenodd" d="M0.125977 4.17801C0.125977 1.94014 1.94014 0.125977 4.17801 0.125977H33.8219C36.0598 0.125977 37.874 1.94014 37.874 4.17801V15.8831L37.8643 15.8831H0.135588L0.125977 15.8831V4.17801ZM0.125977 19.2759V33.8219C0.125977 36.0598 1.94014 37.874 4.17801 37.874H33.8219C36.0598 37.874 37.874 36.0598 37.874 33.8219V19.2759L37.8643 19.276H0.135588L0.125977 19.2759ZM17.1385 9.62902V6.97291C17.1385 5.47383 15.9233 4.25862 14.4242 4.25862H7.1359C5.63685 4.25862 4.42161 5.47383 4.42161 6.97291V9.62902C4.42161 11.1281 5.63685 12.3433 7.1359 12.3433H14.4242C15.9233 12.3433 17.1385 11.1281 17.1385 9.62902ZM33.5781 6.97291V9.62902C33.5781 11.1281 32.363 12.3433 30.8639 12.3433H23.5757C22.0766 12.3433 20.8614 11.1281 20.8614 9.62902V6.97291C20.8614 5.47383 22.0766 4.25862 23.5757 4.25862H30.8639C32.363 4.25862 33.5781 5.47383 33.5781 6.97291Z" fill="#8E9DCB"/>
</g>
<defs>
<clipPath id="clip0_19_833">
<rect width="38" height="38" fill="white"/>
</clipPath>
</defs>
</svg>
