<svg width="38" height="38" viewBox="0 0 38 38" fill="none" xmlns="http://www.w3.org/2000/svg">
<g clip-path="url(#clip0_19_848)">
<path fill-rule="evenodd" clip-rule="evenodd" d="M12.2143 2.71429C12.2143 1.21523 10.999 0 9.5 0C8.00095 0 6.78571 1.21523 6.78571 2.71429V5.42857H4.07143C1.82284 5.42857 0 7.2514 0 9.5V13.5714H38V9.5C38 7.2514 36.1771 5.42857 33.9286 5.42857H31.2146V2.71429C31.2146 1.21523 29.9994 0 28.5003 0C27.0012 0 25.786 1.21523 25.786 2.71429V5.42857H12.2143V2.71429ZM38 16.9643H0V33.9286C0 36.1771 1.82284 38 4.07143 38H33.9286C36.1771 38 38 36.1771 38 33.9286V16.9643Z" fill="#8E9DCB"/>
</g>
<defs>
<clipPath id="clip0_19_848">
<rect width="38" height="38" fill="white"/>
</clipPath>
</defs>
</svg>
