<svg width="38" height="38" viewBox="0 0 38 38" fill="none" xmlns="http://www.w3.org/2000/svg">
<g clip-path="url(#clip0_19_853)">
<path fill-rule="evenodd" clip-rule="evenodd" d="M6.28303 14.25C8.20846 9.09739 13.1758 5.42857 19 5.42857C24.8242 5.42857 29.7915 9.09739 31.717 14.25H6.28303ZM5.44524 18.3214C5.43416 18.5462 5.42857 18.7725 5.42857 19C5.42857 25.8034 10.4347 31.4377 16.9643 32.4197V24.8163L11.2812 18.3214H5.44524ZM21.0357 32.4197C27.5652 31.4377 32.5714 25.8034 32.5714 19C32.5714 18.7725 32.5657 18.5462 32.5549 18.3214H26.7187L21.0357 24.8163V32.4197ZM19 0C8.5066 0 0 8.5066 0 19C0 29.4934 8.5066 38 19 38C29.4934 38 38 29.4934 38 19C38 8.5066 29.4934 0 19 0Z" fill="#8E9DCB"/>
</g>
<defs>
<clipPath id="clip0_19_853">
<rect width="38" height="38" fill="white"/>
</clipPath>
</defs>
</svg>
